# bracket - generated by tools/make-3d-samples/make_3d_samples.py
o bracket
v 0.000000 0.000000 0.000000
v 60.000000 0.000000 0.000000
v 60.000000 0.000000 18.000000
v 0.000000 0.000000 18.000000
v 0.000000 34.000000 0.000000
v 60.000000 34.000000 18.000000
v 60.000000 34.000000 0.000000
v 0.000000 34.000000 18.000000
v 18.000000 0.000000 18.000000
v 18.000000 0.000000 60.000000
v 0.000000 0.000000 60.000000
v 18.000000 34.000000 60.000000
v 18.000000 34.000000 18.000000
v 0.000000 34.000000 60.000000
f 1 2 3
f 1 3 4
f 5 6 7
f 5 8 6
f 4 9 10
f 4 10 11
f 8 12 13
f 8 14 12
f 1 7 2
f 1 5 7
f 2 6 3
f 2 7 6
f 3 13 9
f 3 6 13
f 9 12 10
f 9 13 12
f 10 14 11
f 10 12 14
f 11 5 1
f 11 14 5
